<svg width="200" height="225" viewBox="0 0 88 99" fill="none" xmlns="http://www.w3.org/2000/svg">
  <defs>
    <style>
      @keyframes zoomPop {
        0% {
          transform: scale(0);
          opacity: 0;
        }
        50% {
          transform: scale(1.3);
        }
        70% {
          transform: scale(0.9);
        }
        85% {
          transform: scale(1.05);
        }
        100% {
          transform: scale(1);
          opacity: 1;
        }
      }

      @keyframes breathe {
        0%, 100% {
          transform: scale(1);
          opacity: 1;
        }
        50% {
          transform: scale(1.08);
          opacity: 0.9;
        }
      }

      @keyframes energize {
        0%, 100% {
          transform: translateY(0) scale(1);
        }
        25% {
          transform: translateY(-2px) scale(1.03);
        }
        75% {
          transform: translateY(2px) scale(0.97);
        }
      }

      .logo-group {
        animation: zoomPop 0.7s cubic-bezier(0.34, 1.56, 0.64, 1),
                   breathe 3s ease-in-out 0.7s infinite,
                   energize 1.5s ease-in-out 0.8s infinite;
        transform-origin: center;
      }
    </style>
  </defs>

  <g class="logo-group">
    <path fill-rule="evenodd" clip-rule="evenodd" d="M47.4504 1.23698C45.2481 -0.0112838 42.5521 -0.0112857 40.3498 1.23698L22.0001 11.6376L3.81808 22.3286C1.6359 23.6117 0.287881 25.9465 0.267758 28.4779L0.100098 49.5695L0.267758 70.661C0.287881 73.1924 1.6359 75.5273 3.81808 76.8104L22.0001 87.5014L40.3498 97.902C42.5521 99.1502 45.2481 99.1502 47.4504 97.902L65.8001 87.5014L83.9821 76.8104C86.1643 75.5273 87.5123 73.1924 87.5324 70.661L87.7001 49.5695L87.5324 28.4779C87.5123 25.9465 86.1643 23.6117 83.9821 22.3286L65.8001 11.6376L47.4504 1.23698ZM64.036 22.7202L43.8981 26.0765L17.0476 76.4213L64.036 41.1799V22.7202Z" fill="#335CFF"/>
  </g>
</svg>
